<svg xmlns="http://www.w3.org/2000/svg" version="1.1" xmlns:xlink="http://www.w3.org/1999/xlink" xmlns:svgjs="http://svgjs.dev/svgjs" width="100%" height="100%" viewBox="0 0 1000 600"><rect width="1000" height="600" x="0" y="0" fill="#387701"/><g><rect width="333.3333333333333" height="333.3333333333333" rx="13.333333333333334" ry="13.333333333333334" y="171.2026839471348" fill="#051000" transform="matrix(0.8390360426340652,0,0,0.8390360426340652,0,16.515412790983092)" x="148.98045349121097"/><path d="M276.7483104141004 343.4348299112521L276.7483104141004 329.9526874622861L356.03402229941 329.9526874622861L356.03402229941 343.4348299112521L276.7483104141004 343.4348299112521ZM278.47450083802977 276.58959383977856L278.47450083802977 399.14911393876696L368.6828314402721 399.14911393876696L368.6828314402721 412.8693516186197L262.6114060801957 412.8693516186197L262.6114060801957 262.8693561599258L365.4685458233001 262.8693561599258L365.4685458233001 276.58959383977856L278.47450083802977 276.58959383977856Z " fill="#387701" transform="matrix(0.8390360426340652,0,0,0.8390360426340652,0,16.515412790983092)"/><path d="M579.6837617120756 342.8634425956887L579.6837617120756 329.4769183363644L658.4071626543267 329.4769183363644L658.4071626543267 342.8634425956887L579.6837617120756 342.8634425956887ZM581.3977096304878 276.49228699647836L581.3977096304878 398.1825892037571L670.9662637806244 398.1825892037571L670.9662637806244 411.80552007251754L565.6471192768018 411.80552007251754L565.6471192768018 262.86935612771794L667.7747745532357 262.86935612771794L667.7747745532357 276.49228699647836L581.3977096304878 276.49228699647836ZM746.7050312787438 411.80552007251754L731.1612967083141 411.80552007251754L681.6045612052529 300.1033971139178L697.3551515589392 300.1033971139178L742.8634238754056 403.70859369932805L735.4166156781656 403.70859369932805L781.6045569967613 300.1033971139178L796.4981733912413 300.1033971139178L746.7050312787438 411.80552007251754ZM898.8326844509319 411.80552007251754L884.3527796229654 411.80552007251754L884.3527796229654 387.13058021261526L883.7322122731954 383.08211702602046L883.7322122731954 341.7996128532258Q883.7322122731954 327.5561146346954 875.7534892047239 319.90245065419873Q867.7747661362524 312.21923584752255 852.0241757825664 312.21923584752255L852.0241757825664 312.21923584752255Q841.1790225746812 312.21923584752255 831.3976991092587 315.853987467604Q821.5868248176567 319.4591882615059 814.7901347963665 325.42845514976966L814.7901347963665 325.42845514976966L807.993444775076 314.1400395491916Q816.5040827147787 306.9000871352083 828.4130656651267 302.96982725333163Q840.322048615475 299.039567371455 853.5017170915424 299.039567371455L853.5017170915424 299.039567371455Q875.2215743334924 299.039567371455 887.0123539791224 309.7960681008016Q898.8326844509319 320.52301800396873 898.8326844509319 342.4497310291754L898.8326844509319 342.4497310291754L898.8326844509319 411.80552007251754ZM845.8480531110459 412.8693498149804L845.8480531110459 412.8693498149804Q833.2889519847482 412.8693498149804 824.0395433905575 408.73223414984705Q814.7901347963665 404.56556765853423 809.8846976505655 397.23696276601237Q805.008811330944 389.87880704731094 805.008811330944 380.30433936514527L805.008811330944 380.30433936514527Q805.008811330944 371.5868456421857 809.1459269960773 364.46509653292054Q813.3125934873902 357.3433474236553 822.7688578648377 352.9698251490858Q832.2251222422855 348.6258537006958 848.1825683792282 348.6258537006958L848.1825683792282 348.6258537006958L886.7168457173271 348.6258537006958L886.7168457173271 359.88471847509436L848.6258307719212 359.88471847509436Q832.4615288517215 359.88471847509436 826.167202875483 365.6471295801015Q819.902427725424 371.3799898589291 819.902427725424 379.89062779863195L819.902427725424 379.89062779863195Q819.902427725424 389.46509548079763 827.349235922664 395.1979557596252Q834.796044119904 400.9603668646323 848.1825683792282 400.9603668646323L848.1825683792282 400.9603668646323Q860.9485252887824 400.9603668646323 870.2274847091529 395.1093032810867Q879.4768933033439 389.25823969754094 883.7322122731954 378.1766798802196L883.7322122731954 378.1766798802196L887.1305572838406 388.60812152159144Q882.8752383139891 399.6896813389128 872.3551441940787 406.2795155769466Q861.8054992479887 412.8693498149804 845.8480531110459 412.8693498149804ZM996.9118765407712 299.039567371455L996.9118765407712 299.039567371455Q1010.5348074095317 299.039567371455 1020.8480457461854 304.2405127790512Q1031.1612840828393 309.47100901282687 1037.0123476663848 320.1093064374554Q1042.8634112499308 330.74760386208396 1042.8634112499308 346.91190578228344L1042.8634112499308 346.91190578228344L1042.8634112499308 411.80552007251754L1027.762939072194 411.80552007251754L1027.762939072194 348.3894470912596Q1027.762939072194 330.74760386208396 1018.9272420445164 321.7050510511497Q1010.1210958430182 312.6624982402154 994.1636497060755 312.6624982402154L994.1636497060755 312.6624982402154Q982.225115929548 312.6624982402154 973.4189697280498 317.4497320812983Q964.5832727003723 322.2369659223811 959.7960388592895 331.2795187333154Q955.0088050182065 340.32207154424964 955.0088050182065 353.0880284538039L955.0088050182065 353.0880284538039L955.0088050182065 411.80552007251754L939.90833284047 411.80552007251754L939.90833284047 300.1033971139178L954.358686842257 300.1033971139178L954.358686842257 330.74760386208396L952.0241715740748 324.98519275707685Q957.3433202863888 312.8693540234721 969.0454474534803 305.95446069746356Q980.7475746205718 299.039567371455 996.9118765407712 299.039567371455Z " fill="#051000" transform="matrix(0.8390360426340652,0,0,0.8390360426340652,0,16.515412790983092)"/></g></svg>